<svg width="134" height="130" viewBox="0 0 134 130" fill="none" xmlns="http://www.w3.org/2000/svg">
<ellipse cx="66.7747" cy="64.686" rx="66.7747" ry="64.686" fill="#4060CE"/>
<path d="M66.4506 27.2058L96.2696 43.7975L66.5556 60.3308L36.7366 43.7391L66.4506 27.2058ZM33.0079 82.9302V49.9493L62.8779 66.5693V99.5502L33.0079 82.9302ZM107.249 42.5483V41.6216L106.439 41.171L67.2169 19.3473L66.4506 18.9209L65.6842 19.3473L26.4622 41.171L25.6523 41.6216V42.5483V86.1957V87.1224L26.4622 87.573L65.6842 109.397L66.4506 109.823L67.2169 109.397L106.439 87.573L107.249 87.1224V86.1957V42.5483ZM99.8932 82.9302L70.2334 99.4333V66.5694L99.8932 50.0662V82.9302Z" fill="white" stroke="white" stroke-width="3.15235"/>
</svg>
