<svg width="400" height="130" viewBox="0 0 400 130" fill="none" xmlns="http://www.w3.org/2000/svg">
<ellipse cx="66.7747" cy="64.686" rx="66.7747" ry="64.686" fill="white"/>
<path d="M66.4506 27.2058L96.2696 43.7975L66.5556 60.3308L36.7366 43.7391L66.4506 27.2058ZM33.0079 82.9302V49.9493L62.8779 66.5693V99.5502L33.0079 82.9302ZM107.249 42.5483V41.6216L106.439 41.171L67.2169 19.3473L66.4506 18.9209L65.6842 19.3473L26.4622 41.171L25.6523 41.6216V42.5483V86.1957V87.1224L26.4622 87.573L65.6842 109.397L66.4506 109.823L67.2169 109.397L106.439 87.573L107.249 87.1224V86.1957V42.5483ZM99.8932 82.9302L70.2334 99.4333V66.5694L99.8932 50.0662V82.9302Z" fill="#4060CE" stroke="#4060CE" stroke-width="3.15235"/>
<path d="M201.152 48.3105C201.152 44.0622 200.025 41.033 197.772 39.2229C195.555 37.4128 192.434 36.5077 188.407 36.5077H172.504V60.5567H188.407C192.434 60.5567 195.555 59.5777 197.772 57.6198C200.025 55.6619 201.152 52.5588 201.152 48.3105ZM218.053 48.1997C218.053 57.8415 215.615 64.6572 210.738 68.6469C205.862 72.6366 198.899 74.6314 189.848 74.6314H172.504V104H155.548V22.3221H191.122C199.323 22.3221 205.862 24.4278 210.738 28.6391C215.615 32.8505 218.053 39.3707 218.053 48.1997ZM284.991 22.3221H309.539V104H293.635V48.7538C293.635 47.1653 293.654 44.9488 293.691 42.1043C293.728 39.2229 293.746 37.0064 293.746 35.4549L278.286 104H261.718L246.369 35.4549C246.369 37.0064 246.387 39.2229 246.424 42.1043C246.461 44.9488 246.479 47.1653 246.479 48.7538V104H230.576V22.3221H255.401L270.251 86.5451L284.991 22.3221ZM337.744 78.7874C338.261 82.5185 339.277 85.3075 340.791 87.1546C343.562 90.5163 348.309 92.1972 355.032 92.1972C359.059 92.1972 362.328 91.7539 364.84 90.8673C369.606 89.1679 371.988 86.0094 371.988 81.3917C371.988 78.695 370.806 76.6078 368.442 75.1301C366.078 73.6894 362.365 72.4149 357.304 71.3067L348.66 69.3672C340.163 67.4463 334.29 65.3591 331.039 63.1056C325.534 59.3376 322.782 53.4454 322.782 45.4291C322.782 38.1147 325.442 32.0378 330.762 27.1984C336.081 22.3591 343.894 19.9394 354.201 19.9394C362.808 19.9394 370.141 22.2298 376.2 26.8105C382.295 31.3543 385.491 37.9669 385.786 46.6482H369.384C369.089 41.7349 366.946 38.2439 362.956 36.1752C360.296 34.8084 356.99 34.125 353.037 34.125C348.641 34.125 345.132 35.0116 342.509 36.7848C339.886 38.558 338.575 41.033 338.575 44.21C338.575 47.1284 339.868 49.308 342.454 50.7487C344.116 51.7092 347.662 52.8359 353.093 54.1288L367.168 57.509C373.337 58.9867 377.991 60.963 381.131 63.4381C386.008 67.28 388.446 72.8398 388.446 80.1173C388.446 87.5795 385.583 93.7856 379.857 98.7358C374.168 103.649 366.115 106.106 355.697 106.106C345.058 106.106 336.691 103.686 330.595 98.8466C324.5 93.9704 321.452 87.2839 321.452 78.7874H337.744Z" fill="white"/>
</svg>
